# xmcd
#
# Track frame offsets:
#	183
#	14433
#	26783
#	39383
#	50958
#	63458
#	77208
#	87933
#	101733
#	114958
#	126833
#	138408
#	151858
#	164133
#	178508
#	190958
#	202983
#	217158
#	230733
#	244158
#
# Disc length: 3432 seconds
# Revision: 0
# Processed by: cddbd v1.5.2PL0 Copyright (c) Steve Scherf et al.
# Submitted via: dBpowerAMP V12.0
#
DISCID=250d6614
DTITLE=Blind Lemon Jefferson - Deja Vu Modern Times
DYEAR=1900
DGENRE=Blues
TTITLE0=Match Box Blues
TTITLE1=Jack O' Diamonds
TTITLE2=Bad Luck Blues
TTITLE3=Mean Jumper Blues
TTITLE4=Low Down Mojo Blues
TTITLE5=Shuckin' Sugar Blues
TTITLE6=Lonesome House Blues
TTITLE7=Hangman's Blues
TTITLE8=Corinna Blues
TTITLE9=Balky Mule Blues
TTITLE10=Teddy Bear Blues
TTITLE11=Broke and Hungry Blues
TTITLE12=Sunshine Special
TTITLE13=Black Hores Blues
TTITLE14=Prison Cell Blues
TTITLE15=Chock House Blues
TTITLE16=Lock Step Blues
TTITLE17=Lemon's Worried Blues
TTITLE18=Piney Woods Money Mama
TTITLE19=Easy Rider Blues
EXTD=
EXTT0=
EXTT1=
EXTT2=
EXTT3=
EXTT4=
EXTT5=
EXTT6=
EXTT7=
EXTT8=
EXTT9=
EXTT10=
EXTT11=
EXTT12=
EXTT13=
EXTT14=
EXTT15=
EXTT16=
EXTT17=
EXTT18=
EXTT19=
PLAYORDER=
